REM DIRINDEX 1\4,1\2\5,1\2\6,1\3\7,1\3\8
REM DIRNAME cjc124,folder01,folder02,folder03,folder04,folder05,folder06,folder07
TITLE ""
FILE "005_Day03_Check2_Phrases.mp3" MP3
  TRACK 01 AUDIO
    TITLE "0:"
    INDEX 01 00:00:00
  TRACK 02 AUDIO
    TITLE "4:cjc124_0133"
    INDEX 01 00:00:31
  TRACK 03 AUDIO
    TITLE "0:"
    INDEX 01 00:01:44
  TRACK 04 AUDIO
    TITLE "5:cjc124_0134"
    INDEX 01 00:02:02
  TRACK 05 AUDIO
    TITLE "0:"
    INDEX 01 00:03:66
  TRACK 06 AUDIO
    TITLE "6:cjc124_0135"
    INDEX 01 00:04:07
  TRACK 07 AUDIO
    TITLE "0:"
    INDEX 01 00:05:59
  TRACK 08 AUDIO
    TITLE "5:cjc124_0136"
    INDEX 01 00:06:22
  TRACK 09 AUDIO
    TITLE "0:"
    INDEX 01 00:08:17
  TRACK 10 AUDIO
    TITLE "6:cjc124_0137"
    INDEX 01 00:08:34
  TRACK 11 AUDIO
    TITLE "0:"
    INDEX 01 00:09:65
  TRACK 12 AUDIO
    TITLE "5:cjc124_0138"
    INDEX 01 00:10:27
  TRACK 13 AUDIO
    TITLE "0:"
    INDEX 01 00:11:74
  TRACK 14 AUDIO
    TITLE "6:cjc124_0139"
    INDEX 01 00:12:16
  TRACK 15 AUDIO
    TITLE "0:"
    INDEX 01 00:13:53
  TRACK 16 AUDIO
    TITLE "5:cjc124_0140"
    INDEX 01 00:14:17
  TRACK 17 AUDIO
    TITLE "0:"
    INDEX 01 00:15:56
  TRACK 18 AUDIO
    TITLE "6:cjc124_0141"
    INDEX 01 00:16:06
  TRACK 19 AUDIO
    TITLE "0:"
    INDEX 01 00:17:27
  TRACK 20 AUDIO
    TITLE "5:cjc124_0142"
    INDEX 01 00:17:63
  TRACK 21 AUDIO
    TITLE "0:"
    INDEX 01 00:19:32
  TRACK 22 AUDIO
    TITLE "6:cjc124_0143"
    INDEX 01 00:19:58
  TRACK 23 AUDIO
    TITLE "0:"
    INDEX 01 00:22:05
  TRACK 24 AUDIO
    TITLE "5:cjc124_0144"
    INDEX 01 00:22:42
  TRACK 25 AUDIO
    TITLE "0:"
    INDEX 01 00:24:24
  TRACK 26 AUDIO
    TITLE "6:cjc124_0145"
    INDEX 01 00:24:39
  TRACK 27 AUDIO
    TITLE "0:"
    INDEX 01 00:26:38
  TRACK 28 AUDIO
    TITLE "5:cjc124_0146"
    INDEX 01 00:27:00
  TRACK 29 AUDIO
    TITLE "0:"
    INDEX 01 00:28:35
  TRACK 30 AUDIO
    TITLE "6:cjc124_0147"
    INDEX 01 00:28:53
  TRACK 31 AUDIO
    TITLE "0:"
    INDEX 01 00:30:20
  TRACK 32 AUDIO
    TITLE "5:cjc124_0148"
    INDEX 01 00:30:59
  TRACK 33 AUDIO
    TITLE "0:"
    INDEX 01 00:32:35
  TRACK 34 AUDIO
    TITLE "6:cjc124_0149"
    INDEX 01 00:32:50
  TRACK 35 AUDIO
    TITLE "0:"
    INDEX 01 00:34:38
  TRACK 36 AUDIO
    TITLE "5:cjc124_0150"
    INDEX 01 00:35:04
  TRACK 37 AUDIO
    TITLE "0:"
    INDEX 01 00:37:05
  TRACK 38 AUDIO
    TITLE "6:cjc124_0151"
    INDEX 01 00:37:28
  TRACK 39 AUDIO
    TITLE "0:"
    INDEX 01 00:39:17
  TRACK 40 AUDIO
    TITLE "5:cjc124_0152"
    INDEX 01 00:39:54
  TRACK 41 AUDIO
    TITLE "0:"
    INDEX 01 00:41:20
  TRACK 42 AUDIO
    TITLE "6:cjc124_0153"
    INDEX 01 00:41:53
  TRACK 43 AUDIO
    TITLE "0:"
    INDEX 01 00:43:48
  TRACK 44 AUDIO
    TITLE "5:cjc124_0154"
    INDEX 01 00:44:09
  TRACK 45 AUDIO
    TITLE "0:"
    INDEX 01 00:45:65
  TRACK 46 AUDIO
    TITLE "6:cjc124_0155"
    INDEX 01 00:46:07
  TRACK 47 AUDIO
    TITLE "0:"
    INDEX 01 00:47:56
  TRACK 48 AUDIO
    TITLE "5:cjc124_0156"
    INDEX 01 00:48:18
  TRACK 49 AUDIO
    TITLE "0:"
    INDEX 01 00:49:74
  TRACK 50 AUDIO
    TITLE "6:cjc124_0157"
    INDEX 01 00:50:17
  TRACK 51 AUDIO
    TITLE "0:"
    INDEX 01 00:51:54
  TRACK 52 AUDIO
    TITLE "5:cjc124_0158"
    INDEX 01 00:52:14
  TRACK 53 AUDIO
    TITLE "0:"
    INDEX 01 00:53:57
  TRACK 54 AUDIO
    TITLE "6:cjc124_0159"
    INDEX 01 00:53:74
  TRACK 55 AUDIO
    TITLE "0:"
    INDEX 01 00:55:32
  TRACK 56 AUDIO
    TITLE "5:cjc124_0160"
    INDEX 01 00:55:69
  TRACK 57 AUDIO
    TITLE "0:"
    INDEX 01 00:57:50
  TRACK 58 AUDIO
    TITLE "6:cjc124_0161"
    INDEX 01 00:57:70
  TRACK 59 AUDIO
    TITLE "0:"
    INDEX 01 00:59:51
  TRACK 60 AUDIO
    TITLE "5:cjc124_0162"
    INDEX 01 01:00:13
  TRACK 61 AUDIO
    TITLE "0:"
    INDEX 01 01:01:66
  TRACK 62 AUDIO
    TITLE "6:cjc124_0163"
    INDEX 01 01:02:06
  TRACK 63 AUDIO
    TITLE "0:"
    INDEX 01 01:03:26
  TRACK 64 AUDIO
    TITLE "5:cjc124_0164"
    INDEX 01 01:03:61
  TRACK 65 AUDIO
    TITLE "0:"
    INDEX 01 01:06:08
  TRACK 66 AUDIO
    TITLE "6:cjc124_0165"
    INDEX 01 01:06:32
  TRACK 67 AUDIO
    TITLE "0:"
    INDEX 01 01:08:29
